 <svg aria-hidden="true" style="position:absolute;width:0;height:0" xmlns="http://www.w3.org/2000/svg" overflow="hidden">
 <defs>
  <symbol id="icon-logo" viewBox="0 0 32 32">
    <path d="M0 0h32v32h-32v-32z"></path>
</symbol>
    <symbol id="icon-fasebook" viewBox="0 0 32 32">
      <path  d="M21.65 5.602h2.924V.655a40.727 40.727 0 0 0-4.262-.218c-4.231 0-7.124 2.582-7.124 7.311v4.076H8.412v5.538h4.776v14.187h5.724V17.362h4.76l.716-5.538h-5.476V8.293c0-1.633.436-2.691 2.738-2.691z"/>
    </symbol>
    <symbol id="icon-instagram" viewBox="0 0 32 32">
      <path  d="M23.983 6.229a1.794 1.794 0 0 0-1.758 2.141 1.794 1.794 0 0 0 2.443 1.306 1.79 1.79 0 0 0 1.106-1.656 1.792 1.792 0 0 0-1.792-1.792zm6.869 3.614a11.33 11.33 0 0 0-.687-3.629 7.38 7.38 0 0 0-1.732-2.643 7.01 7.01 0 0 0-2.643-1.717 10.905 10.905 0 0 0-3.629-.702c-1.583-.09-2.091-.09-6.152-.09s-4.57 0-6.152.09a10.905 10.905 0 0 0-3.629.702 7.135 7.135 0 0 0-2.643 1.717 7.01 7.01 0 0 0-1.717 2.643 10.905 10.905 0 0 0-.702 3.629c-.09 1.583-.09 2.091-.09 6.153s0 4.57.09 6.152c.026 1.241.263 2.468.702 3.629.365 1 .952 1.904 1.717 2.643a7.135 7.135 0 0 0 2.643 1.717c1.161.439 2.388.676 3.629.702 1.583.09 2.091.09 6.152.09s4.57 0 6.152-.09a10.905 10.905 0 0 0 3.629-.702c1-.365 1.904-.952 2.643-1.717a7.243 7.243 0 0 0 1.732-2.643 11.33 11.33 0 0 0 .687-3.629c0-1.583.09-2.091.09-6.152s0-4.57-.09-6.153zm-2.688 12.126a8.39 8.39 0 0 1-.508 2.778 4.556 4.556 0 0 1-1.12 1.717 4.763 4.763 0 0 1-1.717 1.12 8.39 8.39 0 0 1-2.778.508c-1.493.075-2.046.09-5.973.09s-4.48 0-5.973-.09a8.566 8.566 0 0 1-2.897-.448 4.885 4.885 0 0 1-1.643-1.12 4.48 4.48 0 0 1-1.105-1.717 8.25 8.25 0 0 1-.597-2.837c0-1.493-.09-2.046-.09-5.973s0-4.48.09-5.973a8.281 8.281 0 0 1 .523-2.837 4.482 4.482 0 0 1 1.18-1.643 4.7 4.7 0 0 1 1.643-1.195 8.58 8.58 0 0 1 2.837-.508c1.493 0 2.046-.09 5.973-.09s4.48 0 5.973.09a8.39 8.39 0 0 1 2.778.508 4.56 4.56 0 0 1 1.777 1.195c.489.459.872 1.02 1.12 1.643a8.37 8.37 0 0 1 .508 2.837c.075 1.493.09 2.046.09 5.973s-.015 4.48-.09 5.973zM16.008 8.335a7.667 7.667 0 0 0-7.067 4.739 7.66 7.66 0 0 0 10.017 9.997 7.657 7.657 0 0 0 4.726-7.077 7.645 7.645 0 0 0-7.675-7.66zm0 12.634a4.979 4.979 0 0 1-4.595-3.07 4.975 4.975 0 0 1 3.624-6.78 4.974 4.974 0 0 1 5.564 6.781 4.965 4.965 0 0 1-2.691 2.691 4.97 4.97 0 0 1-1.903.379z"/>
    </symbol>
    <symbol id="icon-left-arrow" viewBox="0 0 32 32">
      <path  d="M9.778 8.302 0 16l9.778 7.698v-6.365H32v-2.667H9.778V8.301z" style="fill:var(--color1, #f6f5ef)"/>
    </symbol>
    <symbol id="icon-right-arrow" viewBox="0 0 32 32">
      <path  d="M22.222 8.302 32 16l-9.778 7.698v-6.365H0v-2.667h22.222V8.301z" style="fill:var(--color1, #f6f5ef)"/>
    </symbol>
    <symbol id="icon-up-arrow" viewBox="0 0 32 32">
      <path  d="M3.765 0h24.471a3.765 3.765 0 0 1 3.765 3.765v24.471a3.765 3.765 0 0 1-3.765 3.765H3.765A3.765 3.765 0 0 1 0 28.236V3.765A3.765 3.765 0 0 1 3.765 0z" style="fill:var(--color2, #93abae)"/>
      <path fill="#f6f5ef" d="M12.235 13.255 16 8.941l3.765 4.314h-3.113v9.804h-1.304v-9.804h-3.113z" style="fill:var(--color1, #f6f5ef)"/>
    </symbol>
    <symbol id="icon-youtobe" viewBox="0 0 32 32">
      <path  d="M25.064 4.999c-1.496-.088-4.576-.176-9.24-.176h-.616c-4.488 0-7.48.088-8.976.264-2.024.176-3.432.704-4.224 1.408C1.304 7.111.776 8.255.6 9.751c-.088.968-.176 2.992-.176 6.072v.44c0 2.904.088 4.928.264 5.896.264 1.408.704 2.464 1.584 3.08.88.704 2.376 1.144 4.488 1.32 1.496.088 4.576.176 9.24.176h.616c4.488 0 7.48-.088 8.976-.264 2.024-.176 3.432-.704 4.224-1.408.704-.616 1.232-1.76 1.408-3.256.088-.968.176-2.992.176-6.072v-.44c0-2.904-.088-4.928-.264-5.896-.264-1.408-.704-2.464-1.584-3.08-.88-.704-2.376-1.144-4.488-1.32zm-3.432 10.824-9.68 5.808V10.015l9.68 5.808z"/>
    </symbol>
<!--  footer-branch -->
<!-- yachtsblock6 -->
  <symbol id="icon-arrow-left" viewBox="0 0 72 32">
<path fill="#F6F5EF" style="fill: var(--color1, #F6F5EF)" d="M22 0l-22 16 22 16v-13.229h50v-5.543h-50v-13.229z"></path>
</symbol>
  <symbol id="icon-arrow-right" viewBox="0 0 72 32">
<path fill="#F6F5EF" style="fill: var(--color1, #F6F5EF)" d="M50 0l22 16-22 16v-13.229h-50v-5.543h50v-13.229z"></path>
</symbol>
   <!--rent-block-->
  <symbol id="icon-close-black" viewBox="0 0 32 32">
    <path stroke-linejoin="round" stroke-linecap="round" stroke-width="2.08" d="M24 8 8 24M8 8l16 16"/>
  </symbol>
   <symbol id="rent-block-arrow" viewBox="0 0 64 32">
      <path d="M44.444.604 64 16 44.444 31.396V18.667H0v-5.333h44.444V.605z"/>
    </symbol>
</defs>
</svg>


<!-- svg burger -->
<!-- main -->
<!-- <<<<<<< header -->
    <symbol id="icon-burger-button" viewBox="0 0 32 32">

    <symbol id="icon-hamburger-menu" viewBox="0 0 32 32">
<!-- >>>>>>> main -->
<path d="M2.667 7.993c0-0.733 0.595-1.327 1.327-1.327h10.68c0.352 0 0.689 0.14 0.938 0.389s0.389 0.586 0.389 0.938c0 0.352-0.14 0.689-0.389 0.938s-0.586 0.389-0.938 0.389h-10.68c-0.352 0-0.689-0.14-0.938-0.389s-0.389-0.586-0.389-0.938zM2.667 16c0-0.733 0.595-1.327 1.327-1.327h24.013c0.352 0 0.689 0.14 0.938 0.389s0.389 0.586 0.389 0.938c0 0.352-0.14 0.689-0.389 0.938s-0.586 0.389-0.938 0.389h-24.013c-0.352 0-0.689-0.14-0.938-0.389s-0.389-0.586-0.389-0.938zM3.993 22.68c-0.352 0-0.689 0.14-0.938 0.389s-0.389 0.586-0.389 0.938c0 0.352 0.14 0.689 0.389 0.938s0.586 0.389 0.938 0.389h16.013c0.352 0 0.689-0.14 0.938-0.389s0.389-0.586 0.389-0.938c0-0.352-0.14-0.689-0.389-0.938s-0.586-0.389-0.938-0.389h-16.013z"></path>
</symbol>
<symbol id="header-icon-close" viewBox="0 0 32 32">
<path d="M32 3.223l-3.223-3.223-12.777 12.777-12.777-12.777-3.223 3.223 12.777 12.777-12.777 12.777 3.223 3.223 12.777-12.777 12.777 12.777 3.223-3.223-12.777-12.777 12.777-12.777z"></path>
</symbol>
<!--  footer-branch -->
<!--  main -->
  </defs>
</svg>